<svg version="1.1" id="style1-svg" xmlns="http://www.w3.org/2000/svg" xmlns:xlink="http://www.w3.org/1999/xlink" x="0px" y="0px" width="400" height="400" viewBox="0 0 400 400" style="enable-background:new 0 0 400 400;" xml:space="preserve"><style type="text/css">            .frame-color {                fill: #000000;            }            .background-color {                fill: #FFFFFF;            }            .text-color {                fill: #FFFFFF;            }        </style><rect x="51.8" y="12.1" class="background-color" width="297.9" height="297.9"></rect><path class="frame-color" d="M55.4,400h290.5c8.8,0,15.8-7.2,15.8-15.8V15.8C361.7,7,354.6,0,345.9,0H55.5c-8.8,0-15.8,7.2-15.9,15.8v368.4C39.6,393,46.8,400,55.4,400z M51.8,20.7c0-4.7,3.8-8.5,8.5-8.5H341c4.7,0,8.5,3.8,8.5,8.5v280.8c0,4.7-3.8,8.5-8.5,8.5H60.4c-4.7,0-8.5-3.8-8.5-8.5V20.7z"></path><path class="text-color" d="M103,369.5c5.3-0.1,8.1-2,8.1-5.8c0-3.1-1.7-4.8-5.3-5.5c-1.6-0.2-3.5-0.5-5.4-0.8c-3.6-0.6-6.2-1.8-8.1-3.9c-1.8-2.1-2.9-4.6-2.9-7.6c0-3.6,1.2-6.5,3.6-8.7c2.3-2.2,5.5-3.2,9.8-3.3c5.1,0.1,9.6,1.5,13.3,4.3l-3.5,5.1c-3.1-2.1-6.5-3.1-10.2-3.1c-2,0-3.5,0.5-4.8,1.4c-1.4,1-2.1,2.4-2.1,4.5c0,1.2,0.5,2.3,1.4,3.2c0.9,0.9,2.4,1.6,4.4,2.1c1.2,0.2,2.7,0.5,4.6,0.7c3.8,0.6,6.7,2,8.5,4.2c1.8,2.2,2.8,4.7,2.8,7.6c-0.2,7.8-5,11.9-14.4,12c-6.1,0-11.3-1.8-15.7-5.7l4-4.7C94.5,368.1,98.5,369.5,103,369.5z M151.4,364c-0.9,3.8-2.7,6.7-5.2,8.8c-2.7,2.1-5.7,3-9.2,3c-3.2-0.1-5.9-0.8-8.1-2.4c-2.2-1.5-3.8-3.1-4.8-5c-0.3-0.6-0.6-1.2-0.8-1.7c-0.2-0.6-0.5-1.3-0.6-2.2c-0.2-1.6-0.5-4.8-0.5-9.6c0-4.7,0.1-8,0.5-9.6c0.3-1.6,0.8-2.9,1.4-3.9c1-1.8,2.5-3.6,4.8-5.1c2.2-1.5,4.8-2.3,8.1-2.3c3.9,0,7.2,1.2,9.7,3.6c2.5,2.3,4,5.2,4.7,8.7h-6.6c-0.5-1.6-1.4-3.1-2.8-4.3c-1.4-1.2-3.1-1.7-5.1-1.7c-1.5,0-2.8,0.3-3.8,0.9c-1,0.6-2,1.3-2.5,2.1c-0.8,0.9-1.4,2.1-1.6,3.5c-0.3,1.5-0.5,4.3-0.5,8.3c0,4,0.1,6.8,0.5,8.2c0.2,1.4,0.8,2.5,1.6,3.5c0.7,0.8,1.5,1.5,2.5,2.1c1,0.6,2.3,0.9,3.8,0.9c3.5,0,6.1-1.8,7.8-5.7L151.4,364L151.4,364z M177.1,366.3h-15.6l-3.1,9.2h-6.6l14.9-41.1h5.2l14.9,41.1h-6.6L177.1,366.3z M175.1,360.8l-6-18H169l-6,18H175.1z M191,334.3h5.9l18.6,29.2h0.1v-29.2h6.2v41.1h-5.9l-18.5-29.2h-0.1v29.2h-6.2v-41.1H191z M244.3,334.3h5.9l11.8,26.8l11.5-26.8h5.9v41.1h-6.2v-25.6h-0.1l-8.5,19.7h-5.2l-8.5-19.7l0,0v25.6h-6.2v-41.1H244.3z M288.1,334.3h26.2v5.9h-20V352h17.1v5.5h-17.1v12h20v5.9h-26.2V334.3z"></path><g class="addsvg"><svg version="1.1" baseProfile="tiny" xmlns="http://www.w3.org/2000/svg" width="400" height="400" x="0" y="0" viewBox="0 0 400 400"><rect xmlns="http://www.w3.org/2000/svg" shape-rendering="optimizeSpeed" width="400" height="400" fill="#fff" x="0" y="0"></rect><rect shape-rendering="optimizeSpeed" fill="#000" x="10" y="10" width="15.299999999999999" height="15.299999999999999"></rect><rect shape-rendering="optimizeSpeed" fill="#000" x="25.2" y="10" width="15.299999999999999" height="15.299999999999999"></rect><rect shape-rendering="optimizeSpeed" fill="#000" x="40.4" y="10" width="15.299999999999999" height="15.299999999999999"></rect><rect shape-rendering="optimizeSpeed" fill="#000" x="55.599999999999994" y="10" width="15.299999999999999" height="15.299999999999999"></rect><rect shape-rendering="optimizeSpeed" fill="#000" x="70.8" y="10" width="15.299999999999999" height="15.299999999999999"></rect><rect shape-rendering="optimizeSpeed" fill="#000" x="86" y="10" width="15.299999999999999" height="15.299999999999999"></rect><rect shape-rendering="optimizeSpeed" fill="#000" x="101.19999999999999" y="10" width="15.299999999999999" height="15.299999999999999"></rect><rect shape-rendering="optimizeSpeed" fill="#000" x="146.79999999999998" y="10" width="15.299999999999999" height="15.299999999999999"></rect><rect shape-rendering="optimizeSpeed" fill="#000" x="162" y="10" width="15.299999999999999" height="15.299999999999999"></rect><rect shape-rendering="optimizeSpeed" fill="#000" x="192.39999999999998" y="10" width="15.299999999999999" height="15.299999999999999"></rect><rect shape-rendering="optimizeSpeed" fill="#000" x="207.6" y="10" width="15.299999999999999" height="15.299999999999999"></rect><rect shape-rendering="optimizeSpeed" fill="#000" x="222.79999999999998" y="10" width="15.299999999999999" height="15.299999999999999"></rect><rect shape-rendering="optimizeSpeed" fill="#000" x="238" y="10" width="15.299999999999999" height="15.299999999999999"></rect><rect shape-rendering="optimizeSpeed" fill="#000" x="253.2" y="10" width="15.299999999999999" height="15.299999999999999"></rect><rect shape-rendering="optimizeSpeed" fill="#000" x="283.59999999999997" y="10" width="15.299999999999999" height="15.299999999999999"></rect><rect shape-rendering="optimizeSpeed" fill="#000" x="298.8" y="10" width="15.299999999999999" height="15.299999999999999"></rect><rect shape-rendering="optimizeSpeed" fill="#000" x="314" y="10" width="15.299999999999999" height="15.299999999999999"></rect><rect shape-rendering="optimizeSpeed" fill="#000" x="329.2" y="10" width="15.299999999999999" height="15.299999999999999"></rect><rect shape-rendering="optimizeSpeed" fill="#000" x="344.4" y="10" width="15.299999999999999" height="15.299999999999999"></rect><rect shape-rendering="optimizeSpeed" fill="#000" x="359.59999999999997" y="10" width="15.299999999999999" height="15.299999999999999"></rect><rect shape-rendering="optimizeSpeed" fill="#000" x="374.79999999999995" y="10" width="15.299999999999999" height="15.299999999999999"></rect><rect shape-rendering="optimizeSpeed" fill="#000" x="10" y="25.2" width="15.299999999999999" height="15.299999999999999"></rect><rect shape-rendering="optimizeSpeed" fill="#000" x="101.19999999999999" y="25.2" width="15.299999999999999" height="15.299999999999999"></rect><rect shape-rendering="optimizeSpeed" fill="#000" x="162" y="25.2" width="15.299999999999999" height="15.299999999999999"></rect><rect shape-rendering="optimizeSpeed" fill="#000" x="177.2" y="25.2" width="15.299999999999999" height="15.299999999999999"></rect><rect shape-rendering="optimizeSpeed" fill="#000" x="192.39999999999998" y="25.2" width="15.299999999999999" height="15.299999999999999"></rect><rect shape-rendering="optimizeSpeed" fill="#000" x="207.6" y="25.2" width="15.299999999999999" height="15.299999999999999"></rect><rect shape-rendering="optimizeSpeed" fill="#000" x="222.79999999999998" y="25.2" width="15.299999999999999" height="15.299999999999999"></rect><rect shape-rendering="optimizeSpeed" fill="#000" x="238" y="25.2" width="15.299999999999999" height="15.299999999999999"></rect><rect shape-rendering="optimizeSpeed" fill="#000" x="253.2" y="25.2" width="15.299999999999999" height="15.299999999999999"></rect><rect shape-rendering="optimizeSpeed" fill="#000" x="283.59999999999997" y="25.2" width="15.299999999999999" height="15.299999999999999"></rect><rect shape-rendering="optimizeSpeed" fill="#000" x="374.79999999999995" y="25.2" width="15.299999999999999" height="15.299999999999999"></rect><rect shape-rendering="optimizeSpeed" fill="#000" x="10" y="40.4" width="15.299999999999999" height="15.299999999999999"></rect><rect shape-rendering="optimizeSpeed" fill="#000" x="40.4" y="40.4" width="15.299999999999999" height="15.299999999999999"></rect><rect shape-rendering="optimizeSpeed" fill="#000" x="55.599999999999994" y="40.4" width="15.299999999999999" height="15.299999999999999"></rect><rect shape-rendering="optimizeSpeed" fill="#000" x="70.8" y="40.4" width="15.299999999999999" height="15.299999999999999"></rect><rect shape-rendering="optimizeSpeed" fill="#000" x="101.19999999999999" y="40.4" width="15.299999999999999" height="15.299999999999999"></rect><rect shape-rendering="optimizeSpeed" fill="#000" x="131.6" y="40.4" width="15.299999999999999" height="15.299999999999999"></rect><rect shape-rendering="optimizeSpeed" fill="#000" x="146.79999999999998" y="40.4" width="15.299999999999999" height="15.299999999999999"></rect><rect shape-rendering="optimizeSpeed" fill="#000" x="162" y="40.4" width="15.299999999999999" height="15.299999999999999"></rect><rect shape-rendering="optimizeSpeed" fill="#000" x="177.2" y="40.4" width="15.299999999999999" height="15.299999999999999"></rect><rect shape-rendering="optimizeSpeed" fill="#000" x="283.59999999999997" y="40.4" width="15.299999999999999" height="15.299999999999999"></rect><rect shape-rendering="optimizeSpeed" fill="#000" x="314" y="40.4" width="15.299999999999999" height="15.299999999999999"></rect><rect shape-rendering="optimizeSpeed" fill="#000" x="329.2" y="40.4" width="15.299999999999999" height="15.299999999999999"></rect><rect shape-rendering="optimizeSpeed" fill="#000" x="344.4" y="40.4" width="15.299999999999999" height="15.299999999999999"></rect><rect shape-rendering="optimizeSpeed" fill="#000" x="374.79999999999995" y="40.4" width="15.299999999999999" height="15.299999999999999"></rect><rect shape-rendering="optimizeSpeed" fill="#000" x="10" y="55.599999999999994" width="15.299999999999999" height="15.299999999999999"></rect><rect shape-rendering="optimizeSpeed" fill="#000" x="40.4" y="55.599999999999994" width="15.299999999999999" height="15.299999999999999"></rect><rect shape-rendering="optimizeSpeed" fill="#000" x="55.599999999999994" y="55.599999999999994" width="15.299999999999999" height="15.299999999999999"></rect><rect shape-rendering="optimizeSpeed" fill="#000" x="70.8" y="55.599999999999994" width="15.299999999999999" height="15.299999999999999"></rect><rect shape-rendering="optimizeSpeed" fill="#000" x="101.19999999999999" y="55.599999999999994" width="15.299999999999999" height="15.299999999999999"></rect><rect shape-rendering="optimizeSpeed" fill="#000" x="146.79999999999998" y="55.599999999999994" width="15.299999999999999" height="15.299999999999999"></rect><rect shape-rendering="optimizeSpeed" fill="#000" x="162" y="55.599999999999994" width="15.299999999999999" height="15.299999999999999"></rect><rect shape-rendering="optimizeSpeed" fill="#000" x="238" y="55.599999999999994" width="15.299999999999999" height="15.299999999999999"></rect><rect shape-rendering="optimizeSpeed" fill="#000" x="283.59999999999997" y="55.599999999999994" width="15.299999999999999" height="15.299999999999999"></rect><rect shape-rendering="optimizeSpeed" fill="#000" x="314" y="55.599999999999994" width="15.299999999999999" height="15.299999999999999"></rect><rect shape-rendering="optimizeSpeed" fill="#000" x="329.2" y="55.599999999999994" width="15.299999999999999" height="15.299999999999999"></rect><rect shape-rendering="optimizeSpeed" fill="#000" x="344.4" y="55.599999999999994" width="15.299999999999999" height="15.299999999999999"></rect><rect shape-rendering="optimizeSpeed" fill="#000" x="374.79999999999995" y="55.599999999999994" width="15.299999999999999" height="15.299999999999999"></rect><rect shape-rendering="optimizeSpeed" fill="#000" x="10" y="70.8" width="15.299999999999999" height="15.299999999999999"></rect><rect shape-rendering="optimizeSpeed" fill="#000" x="40.4" y="70.8" width="15.299999999999999" height="15.299999999999999"></rect><rect shape-rendering="optimizeSpeed" fill="#000" x="55.599999999999994" y="70.8" width="15.299999999999999" height="15.299999999999999"></rect><rect shape-rendering="optimizeSpeed" fill="#000" x="70.8" y="70.8" width="15.299999999999999" height="15.299999999999999"></rect><rect shape-rendering="optimizeSpeed" fill="#000" x="101.19999999999999" y="70.8" width="15.299999999999999" height="15.299999999999999"></rect><rect shape-rendering="optimizeSpeed" fill="#000" x="162" y="70.8" width="15.299999999999999" height="15.299999999999999"></rect><rect shape-rendering="optimizeSpeed" fill="#000" x="177.2" y="70.8" width="15.299999999999999" height="15.299999999999999"></rect><rect shape-rendering="optimizeSpeed" fill="#000" x="192.39999999999998" y="70.8" width="15.299999999999999" height="15.299999999999999"></rect><rect shape-rendering="optimizeSpeed" fill="#000" x="238" y="70.8" width="15.299999999999999" height="15.299999999999999"></rect><rect shape-rendering="optimizeSpeed" fill="#000" x="283.59999999999997" y="70.8" width="15.299999999999999" height="15.299999999999999"></rect><rect shape-rendering="optimizeSpeed" fill="#000" x="314" y="70.8" width="15.299999999999999" height="15.299999999999999"></rect><rect shape-rendering="optimizeSpeed" fill="#000" x="329.2" y="70.8" width="15.299999999999999" height="15.299999999999999"></rect><rect shape-rendering="optimizeSpeed" fill="#000" x="344.4" y="70.8" width="15.299999999999999" height="15.299999999999999"></rect><rect shape-rendering="optimizeSpeed" fill="#000" x="374.79999999999995" y="70.8" width="15.299999999999999" height="15.299999999999999"></rect><rect shape-rendering="optimizeSpeed" fill="#000" x="10" y="86" width="15.299999999999999" height="15.299999999999999"></rect><rect shape-rendering="optimizeSpeed" fill="#000" x="101.19999999999999" y="86" width="15.299999999999999" height="15.299999999999999"></rect><rect shape-rendering="optimizeSpeed" fill="#000" x="146.79999999999998" y="86" width="15.299999999999999" height="15.299999999999999"></rect><rect shape-rendering="optimizeSpeed" fill="#000" x="177.2" y="86" width="15.299999999999999" height="15.299999999999999"></rect><rect shape-rendering="optimizeSpeed" fill="#000" x="207.6" y="86" width="15.299999999999999" height="15.299999999999999"></rect><rect shape-rendering="optimizeSpeed" fill="#000" x="238" y="86" width="15.299999999999999" height="15.299999999999999"></rect><rect shape-rendering="optimizeSpeed" fill="#000" x="253.2" y="86" width="15.299999999999999" height="15.299999999999999"></rect><rect shape-rendering="optimizeSpeed" fill="#000" x="283.59999999999997" y="86" width="15.299999999999999" height="15.299999999999999"></rect><rect shape-rendering="optimizeSpeed" fill="#000" x="374.79999999999995" y="86" width="15.299999999999999" height="15.299999999999999"></rect><rect shape-rendering="optimizeSpeed" fill="#000" x="10" y="101.19999999999999" width="15.299999999999999" height="15.299999999999999"></rect><rect shape-rendering="optimizeSpeed" fill="#000" x="25.2" y="101.19999999999999" width="15.299999999999999" height="15.299999999999999"></rect><rect shape-rendering="optimizeSpeed" fill="#000" x="40.4" y="101.19999999999999" width="15.299999999999999" height="15.299999999999999"></rect><rect shape-rendering="optimizeSpeed" fill="#000" x="55.599999999999994" y="101.19999999999999" width="15.299999999999999" height="15.299999999999999"></rect><rect shape-rendering="optimizeSpeed" fill="#000" x="70.8" y="101.19999999999999" width="15.299999999999999" height="15.299999999999999"></rect><rect shape-rendering="optimizeSpeed" fill="#000" x="86" y="101.19999999999999" width="15.299999999999999" height="15.299999999999999"></rect><rect shape-rendering="optimizeSpeed" fill="#000" x="101.19999999999999" y="101.19999999999999" width="15.299999999999999" height="15.299999999999999"></rect><rect shape-rendering="optimizeSpeed" fill="#000" x="131.6" y="101.19999999999999" width="15.299999999999999" height="15.299999999999999"></rect><rect shape-rendering="optimizeSpeed" fill="#000" x="162" y="101.19999999999999" width="15.299999999999999" height="15.299999999999999"></rect><rect shape-rendering="optimizeSpeed" fill="#000" x="192.39999999999998" y="101.19999999999999" width="15.299999999999999" height="15.299999999999999"></rect><rect shape-rendering="optimizeSpeed" fill="#000" x="222.79999999999998" y="101.19999999999999" width="15.299999999999999" height="15.299999999999999"></rect><rect shape-rendering="optimizeSpeed" fill="#000" x="253.2" y="101.19999999999999" width="15.299999999999999" height="15.299999999999999"></rect><rect shape-rendering="optimizeSpeed" fill="#000" x="283.59999999999997" y="101.19999999999999" width="15.299999999999999" height="15.299999999999999"></rect><rect shape-rendering="optimizeSpeed" fill="#000" x="298.8" y="101.19999999999999" width="15.299999999999999" height="15.299999999999999"></rect><rect shape-rendering="optimizeSpeed" fill="#000" x="314" y="101.19999999999999" width="15.299999999999999" height="15.299999999999999"></rect><rect shape-rendering="optimizeSpeed" fill="#000" x="329.2" y="101.19999999999999" width="15.299999999999999" height="15.299999999999999"></rect><rect shape-rendering="optimizeSpeed" fill="#000" x="344.4" y="101.19999999999999" width="15.299999999999999" height="15.299999999999999"></rect><rect shape-rendering="optimizeSpeed" fill="#000" x="359.59999999999997" y="101.19999999999999" width="15.299999999999999" height="15.299999999999999"></rect><rect shape-rendering="optimizeSpeed" fill="#000" x="374.79999999999995" y="101.19999999999999" width="15.299999999999999" height="15.299999999999999"></rect><rect shape-rendering="optimizeSpeed" fill="#000" x="131.6" y="116.39999999999999" width="15.299999999999999" height="15.299999999999999"></rect><rect shape-rendering="optimizeSpeed" fill="#000" x="146.79999999999998" y="116.39999999999999" width="15.299999999999999" height="15.299999999999999"></rect><rect shape-rendering="optimizeSpeed" fill="#000" x="162" y="116.39999999999999" width="15.299999999999999" height="15.299999999999999"></rect><rect shape-rendering="optimizeSpeed" fill="#000" x="177.2" y="116.39999999999999" width="15.299999999999999" height="15.299999999999999"></rect><rect shape-rendering="optimizeSpeed" fill="#000" x="207.6" y="116.39999999999999" width="15.299999999999999" height="15.299999999999999"></rect><rect shape-rendering="optimizeSpeed" fill="#000" x="10" y="131.6" width="15.299999999999999" height="15.299999999999999"></rect><rect shape-rendering="optimizeSpeed" fill="#000" x="25.2" y="131.6" width="15.299999999999999" height="15.299999999999999"></rect><rect shape-rendering="optimizeSpeed" fill="#000" x="40.4" y="131.6" width="15.299999999999999" height="15.299999999999999"></rect><rect shape-rendering="optimizeSpeed" fill="#000" x="70.8" y="131.6" width="15.299999999999999" height="15.299999999999999"></rect><rect shape-rendering="optimizeSpeed" fill="#000" x="86" y="131.6" width="15.299999999999999" height="15.299999999999999"></rect><rect shape-rendering="optimizeSpeed" fill="#000" x="101.19999999999999" y="131.6" width="15.299999999999999" height="15.299999999999999"></rect><rect shape-rendering="optimizeSpeed" fill="#000" x="116.39999999999999" y="131.6" width="15.299999999999999" height="15.299999999999999"></rect><rect shape-rendering="optimizeSpeed" fill="#000" x="131.6" y="131.6" width="15.299999999999999" height="15.299999999999999"></rect><rect shape-rendering="optimizeSpeed" fill="#000" x="162" y="131.6" width="15.299999999999999" height="15.299999999999999"></rect><rect shape-rendering="optimizeSpeed" fill="#000" x="207.6" y="131.6" width="15.299999999999999" height="15.299999999999999"></rect><rect shape-rendering="optimizeSpeed" fill="#000" x="222.79999999999998" y="131.6" width="15.299999999999999" height="15.299999999999999"></rect><rect shape-rendering="optimizeSpeed" fill="#000" x="253.2" y="131.6" width="15.299999999999999" height="15.299999999999999"></rect><rect shape-rendering="optimizeSpeed" fill="#000" x="268.4" y="131.6" width="15.299999999999999" height="15.299999999999999"></rect><rect shape-rendering="optimizeSpeed" fill="#000" x="283.59999999999997" y="131.6" width="15.299999999999999" height="15.299999999999999"></rect><rect shape-rendering="optimizeSpeed" fill="#000" x="344.4" y="131.6" width="15.299999999999999" height="15.299999999999999"></rect><rect shape-rendering="optimizeSpeed" fill="#000" x="10" y="146.79999999999998" width="15.299999999999999" height="15.299999999999999"></rect><rect shape-rendering="optimizeSpeed" fill="#000" x="25.2" y="146.79999999999998" width="15.299999999999999" height="15.299999999999999"></rect><rect shape-rendering="optimizeSpeed" fill="#000" x="40.4" y="146.79999999999998" width="15.299999999999999" height="15.299999999999999"></rect><rect shape-rendering="optimizeSpeed" fill="#000" x="55.599999999999994" y="146.79999999999998" width="15.299999999999999" height="15.299999999999999"></rect><rect shape-rendering="optimizeSpeed" fill="#000" x="131.6" y="146.79999999999998" width="15.299999999999999" height="15.299999999999999"></rect><rect shape-rendering="optimizeSpeed" fill="#000" x="162" y="146.79999999999998" width="15.299999999999999" height="15.299999999999999"></rect><rect shape-rendering="optimizeSpeed" fill="#000" x="192.39999999999998" y="146.79999999999998" width="15.299999999999999" height="15.299999999999999"></rect><rect shape-rendering="optimizeSpeed" fill="#000" x="207.6" y="146.79999999999998" width="15.299999999999999" height="15.299999999999999"></rect><rect shape-rendering="optimizeSpeed" fill="#000" x="222.79999999999998" y="146.79999999999998" width="15.299999999999999" height="15.299999999999999"></rect><rect shape-rendering="optimizeSpeed" fill="#000" x="253.2" y="146.79999999999998" width="15.299999999999999" height="15.299999999999999"></rect><rect shape-rendering="optimizeSpeed" fill="#000" x="268.4" y="146.79999999999998" width="15.299999999999999" height="15.299999999999999"></rect><rect shape-rendering="optimizeSpeed" fill="#000" x="283.59999999999997" y="146.79999999999998" width="15.299999999999999" height="15.299999999999999"></rect><rect shape-rendering="optimizeSpeed" fill="#000" x="374.79999999999995" y="146.79999999999998" width="15.299999999999999" height="15.299999999999999"></rect><rect shape-rendering="optimizeSpeed" fill="#000" x="10" y="162" width="15.299999999999999" height="15.299999999999999"></rect><rect shape-rendering="optimizeSpeed" fill="#000" x="55.599999999999994" y="162" width="15.299999999999999" height="15.299999999999999"></rect><rect shape-rendering="optimizeSpeed" fill="#000" x="70.8" y="162" width="15.299999999999999" height="15.299999999999999"></rect><rect shape-rendering="optimizeSpeed" fill="#000" x="86" y="162" width="15.299999999999999" height="15.299999999999999"></rect><rect shape-rendering="optimizeSpeed" fill="#000" x="101.19999999999999" y="162" width="15.299999999999999" height="15.299999999999999"></rect><rect shape-rendering="optimizeSpeed" fill="#000" x="116.39999999999999" y="162" width="15.299999999999999" height="15.299999999999999"></rect><rect shape-rendering="optimizeSpeed" fill="#000" x="131.6" y="162" width="15.299999999999999" height="15.299999999999999"></rect><rect shape-rendering="optimizeSpeed" fill="#000" x="146.79999999999998" y="162" width="15.299999999999999" height="15.299999999999999"></rect><rect shape-rendering="optimizeSpeed" fill="#000" x="192.39999999999998" y="162" width="15.299999999999999" height="15.299999999999999"></rect><rect shape-rendering="optimizeSpeed" fill="#000" x="222.79999999999998" y="162" width="15.299999999999999" height="15.299999999999999"></rect><rect shape-rendering="optimizeSpeed" fill="#000" x="268.4" y="162" width="15.299999999999999" height="15.299999999999999"></rect><rect shape-rendering="optimizeSpeed" fill="#000" x="298.8" y="162" width="15.299999999999999" height="15.299999999999999"></rect><rect shape-rendering="optimizeSpeed" fill="#000" x="314" y="162" width="15.299999999999999" height="15.299999999999999"></rect><rect shape-rendering="optimizeSpeed" fill="#000" x="344.4" y="162" width="15.299999999999999" height="15.299999999999999"></rect><rect shape-rendering="optimizeSpeed" fill="#000" x="359.59999999999997" y="162" width="15.299999999999999" height="15.299999999999999"></rect><rect shape-rendering="optimizeSpeed" fill="#000" x="374.79999999999995" y="162" width="15.299999999999999" height="15.299999999999999"></rect><rect shape-rendering="optimizeSpeed" fill="#000" x="25.2" y="177.2" width="15.299999999999999" height="15.299999999999999"></rect><rect shape-rendering="optimizeSpeed" fill="#000" x="177.2" y="177.2" width="15.299999999999999" height="15.299999999999999"></rect><rect shape-rendering="optimizeSpeed" fill="#000" x="207.6" y="177.2" width="15.299999999999999" height="15.299999999999999"></rect><rect shape-rendering="optimizeSpeed" fill="#000" x="222.79999999999998" y="177.2" width="15.299999999999999" height="15.299999999999999"></rect><rect shape-rendering="optimizeSpeed" fill="#000" x="238" y="177.2" width="15.299999999999999" height="15.299999999999999"></rect><rect shape-rendering="optimizeSpeed" fill="#000" x="253.2" y="177.2" width="15.299999999999999" height="15.299999999999999"></rect><rect shape-rendering="optimizeSpeed" fill="#000" x="268.4" y="177.2" width="15.299999999999999" height="15.299999999999999"></rect><rect shape-rendering="optimizeSpeed" fill="#000" x="283.59999999999997" y="177.2" width="15.299999999999999" height="15.299999999999999"></rect><rect shape-rendering="optimizeSpeed" fill="#000" x="298.8" y="177.2" width="15.299999999999999" height="15.299999999999999"></rect><rect shape-rendering="optimizeSpeed" fill="#000" x="314" y="177.2" width="15.299999999999999" height="15.299999999999999"></rect><rect shape-rendering="optimizeSpeed" fill="#000" x="359.59999999999997" y="177.2" width="15.299999999999999" height="15.299999999999999"></rect><rect shape-rendering="optimizeSpeed" fill="#000" x="10" y="192.39999999999998" width="15.299999999999999" height="15.299999999999999"></rect><rect shape-rendering="optimizeSpeed" fill="#000" x="40.4" y="192.39999999999998" width="15.299999999999999" height="15.299999999999999"></rect><rect shape-rendering="optimizeSpeed" fill="#000" x="70.8" y="192.39999999999998" width="15.299999999999999" height="15.299999999999999"></rect><rect shape-rendering="optimizeSpeed" fill="#000" x="86" y="192.39999999999998" width="15.299999999999999" height="15.299999999999999"></rect><rect shape-rendering="optimizeSpeed" fill="#000" x="101.19999999999999" y="192.39999999999998" width="15.299999999999999" height="15.299999999999999"></rect><rect shape-rendering="optimizeSpeed" fill="#000" x="116.39999999999999" y="192.39999999999998" width="15.299999999999999" height="15.299999999999999"></rect><rect shape-rendering="optimizeSpeed" fill="#000" x="131.6" y="192.39999999999998" width="15.299999999999999" height="15.299999999999999"></rect><rect shape-rendering="optimizeSpeed" fill="#000" x="207.6" y="192.39999999999998" width="15.299999999999999" height="15.299999999999999"></rect><rect shape-rendering="optimizeSpeed" fill="#000" x="222.79999999999998" y="192.39999999999998" width="15.299999999999999" height="15.299999999999999"></rect><rect shape-rendering="optimizeSpeed" fill="#000" x="268.4" y="192.39999999999998" width="15.299999999999999" height="15.299999999999999"></rect><rect shape-rendering="optimizeSpeed" fill="#000" x="283.59999999999997" y="192.39999999999998" width="15.299999999999999" height="15.299999999999999"></rect><rect shape-rendering="optimizeSpeed" fill="#000" x="329.2" y="192.39999999999998" width="15.299999999999999" height="15.299999999999999"></rect><rect shape-rendering="optimizeSpeed" fill="#000" x="359.59999999999997" y="192.39999999999998" width="15.299999999999999" height="15.299999999999999"></rect><rect shape-rendering="optimizeSpeed" fill="#000" x="374.79999999999995" y="192.39999999999998" width="15.299999999999999" height="15.299999999999999"></rect><rect shape-rendering="optimizeSpeed" fill="#000" x="25.2" y="207.6" width="15.299999999999999" height="15.299999999999999"></rect><rect shape-rendering="optimizeSpeed" fill="#000" x="40.4" y="207.6" width="15.299999999999999" height="15.299999999999999"></rect><rect shape-rendering="optimizeSpeed" fill="#000" x="55.599999999999994" y="207.6" width="15.299999999999999" height="15.299999999999999"></rect><rect shape-rendering="optimizeSpeed" fill="#000" x="70.8" y="207.6" width="15.299999999999999" height="15.299999999999999"></rect><rect shape-rendering="optimizeSpeed" fill="#000" x="146.79999999999998" y="207.6" width="15.299999999999999" height="15.299999999999999"></rect><rect shape-rendering="optimizeSpeed" fill="#000" x="192.39999999999998" y="207.6" width="15.299999999999999" height="15.299999999999999"></rect><rect shape-rendering="optimizeSpeed" fill="#000" x="253.2" y="207.6" width="15.299999999999999" height="15.299999999999999"></rect><rect shape-rendering="optimizeSpeed" fill="#000" x="283.59999999999997" y="207.6" width="15.299999999999999" height="15.299999999999999"></rect><rect shape-rendering="optimizeSpeed" fill="#000" x="329.2" y="207.6" width="15.299999999999999" height="15.299999999999999"></rect><rect shape-rendering="optimizeSpeed" fill="#000" x="374.79999999999995" y="207.6" width="15.299999999999999" height="15.299999999999999"></rect><rect shape-rendering="optimizeSpeed" fill="#000" x="10" y="222.79999999999998" width="15.299999999999999" height="15.299999999999999"></rect><rect shape-rendering="optimizeSpeed" fill="#000" x="86" y="222.79999999999998" width="15.299999999999999" height="15.299999999999999"></rect><rect shape-rendering="optimizeSpeed" fill="#000" x="101.19999999999999" y="222.79999999999998" width="15.299999999999999" height="15.299999999999999"></rect><rect shape-rendering="optimizeSpeed" fill="#000" x="162" y="222.79999999999998" width="15.299999999999999" height="15.299999999999999"></rect><rect shape-rendering="optimizeSpeed" fill="#000" x="207.6" y="222.79999999999998" width="15.299999999999999" height="15.299999999999999"></rect><rect shape-rendering="optimizeSpeed" fill="#000" x="253.2" y="222.79999999999998" width="15.299999999999999" height="15.299999999999999"></rect><rect shape-rendering="optimizeSpeed" fill="#000" x="268.4" y="222.79999999999998" width="15.299999999999999" height="15.299999999999999"></rect><rect shape-rendering="optimizeSpeed" fill="#000" x="283.59999999999997" y="222.79999999999998" width="15.299999999999999" height="15.299999999999999"></rect><rect shape-rendering="optimizeSpeed" fill="#000" x="298.8" y="222.79999999999998" width="15.299999999999999" height="15.299999999999999"></rect><rect shape-rendering="optimizeSpeed" fill="#000" x="344.4" y="222.79999999999998" width="15.299999999999999" height="15.299999999999999"></rect><rect shape-rendering="optimizeSpeed" fill="#000" x="359.59999999999997" y="222.79999999999998" width="15.299999999999999" height="15.299999999999999"></rect><rect shape-rendering="optimizeSpeed" fill="#000" x="374.79999999999995" y="222.79999999999998" width="15.299999999999999" height="15.299999999999999"></rect><rect shape-rendering="optimizeSpeed" fill="#000" x="25.2" y="238" width="15.299999999999999" height="15.299999999999999"></rect><rect shape-rendering="optimizeSpeed" fill="#000" x="40.4" y="238" width="15.299999999999999" height="15.299999999999999"></rect><rect shape-rendering="optimizeSpeed" fill="#000" x="55.599999999999994" y="238" width="15.299999999999999" height="15.299999999999999"></rect><rect shape-rendering="optimizeSpeed" fill="#000" x="70.8" y="238" width="15.299999999999999" height="15.299999999999999"></rect><rect shape-rendering="optimizeSpeed" fill="#000" x="131.6" y="238" width="15.299999999999999" height="15.299999999999999"></rect><rect shape-rendering="optimizeSpeed" fill="#000" x="177.2" y="238" width="15.299999999999999" height="15.299999999999999"></rect><rect shape-rendering="optimizeSpeed" fill="#000" x="207.6" y="238" width="15.299999999999999" height="15.299999999999999"></rect><rect shape-rendering="optimizeSpeed" fill="#000" x="238" y="238" width="15.299999999999999" height="15.299999999999999"></rect><rect shape-rendering="optimizeSpeed" fill="#000" x="253.2" y="238" width="15.299999999999999" height="15.299999999999999"></rect><rect shape-rendering="optimizeSpeed" fill="#000" x="268.4" y="238" width="15.299999999999999" height="15.299999999999999"></rect><rect shape-rendering="optimizeSpeed" fill="#000" x="314" y="238" width="15.299999999999999" height="15.299999999999999"></rect><rect shape-rendering="optimizeSpeed" fill="#000" x="359.59999999999997" y="238" width="15.299999999999999" height="15.299999999999999"></rect><rect shape-rendering="optimizeSpeed" fill="#000" x="10" y="253.2" width="15.299999999999999" height="15.299999999999999"></rect><rect shape-rendering="optimizeSpeed" fill="#000" x="55.599999999999994" y="253.2" width="15.299999999999999" height="15.299999999999999"></rect><rect shape-rendering="optimizeSpeed" fill="#000" x="70.8" y="253.2" width="15.299999999999999" height="15.299999999999999"></rect><rect shape-rendering="optimizeSpeed" fill="#000" x="101.19999999999999" y="253.2" width="15.299999999999999" height="15.299999999999999"></rect><rect shape-rendering="optimizeSpeed" fill="#000" x="116.39999999999999" y="253.2" width="15.299999999999999" height="15.299999999999999"></rect><rect shape-rendering="optimizeSpeed" fill="#000" x="192.39999999999998" y="253.2" width="15.299999999999999" height="15.299999999999999"></rect><rect shape-rendering="optimizeSpeed" fill="#000" x="207.6" y="253.2" width="15.299999999999999" height="15.299999999999999"></rect><rect shape-rendering="optimizeSpeed" fill="#000" x="253.2" y="253.2" width="15.299999999999999" height="15.299999999999999"></rect><rect shape-rendering="optimizeSpeed" fill="#000" x="268.4" y="253.2" width="15.299999999999999" height="15.299999999999999"></rect><rect shape-rendering="optimizeSpeed" fill="#000" x="283.59999999999997" y="253.2" width="15.299999999999999" height="15.299999999999999"></rect><rect shape-rendering="optimizeSpeed" fill="#000" x="298.8" y="253.2" width="15.299999999999999" height="15.299999999999999"></rect><rect shape-rendering="optimizeSpeed" fill="#000" x="314" y="253.2" width="15.299999999999999" height="15.299999999999999"></rect><rect shape-rendering="optimizeSpeed" fill="#000" x="329.2" y="253.2" width="15.299999999999999" height="15.299999999999999"></rect><rect shape-rendering="optimizeSpeed" fill="#000" x="131.6" y="268.4" width="15.299999999999999" height="15.299999999999999"></rect><rect shape-rendering="optimizeSpeed" fill="#000" x="146.79999999999998" y="268.4" width="15.299999999999999" height="15.299999999999999"></rect><rect shape-rendering="optimizeSpeed" fill="#000" x="162" y="268.4" width="15.299999999999999" height="15.299999999999999"></rect><rect shape-rendering="optimizeSpeed" fill="#000" x="192.39999999999998" y="268.4" width="15.299999999999999" height="15.299999999999999"></rect><rect shape-rendering="optimizeSpeed" fill="#000" x="207.6" y="268.4" width="15.299999999999999" height="15.299999999999999"></rect><rect shape-rendering="optimizeSpeed" fill="#000" x="222.79999999999998" y="268.4" width="15.299999999999999" height="15.299999999999999"></rect><rect shape-rendering="optimizeSpeed" fill="#000" x="238" y="268.4" width="15.299999999999999" height="15.299999999999999"></rect><rect shape-rendering="optimizeSpeed" fill="#000" x="253.2" y="268.4" width="15.299999999999999" height="15.299999999999999"></rect><rect shape-rendering="optimizeSpeed" fill="#000" x="314" y="268.4" width="15.299999999999999" height="15.299999999999999"></rect><rect shape-rendering="optimizeSpeed" fill="#000" x="329.2" y="268.4" width="15.299999999999999" height="15.299999999999999"></rect><rect shape-rendering="optimizeSpeed" fill="#000" x="359.59999999999997" y="268.4" width="15.299999999999999" height="15.299999999999999"></rect><rect shape-rendering="optimizeSpeed" fill="#000" x="374.79999999999995" y="268.4" width="15.299999999999999" height="15.299999999999999"></rect><rect shape-rendering="optimizeSpeed" fill="#000" x="10" y="283.59999999999997" width="15.299999999999999" height="15.299999999999999"></rect><rect shape-rendering="optimizeSpeed" fill="#000" x="25.2" y="283.59999999999997" width="15.299999999999999" height="15.299999999999999"></rect><rect shape-rendering="optimizeSpeed" fill="#000" x="40.4" y="283.59999999999997" width="15.299999999999999" height="15.299999999999999"></rect><rect shape-rendering="optimizeSpeed" fill="#000" x="55.599999999999994" y="283.59999999999997" width="15.299999999999999" height="15.299999999999999"></rect><rect shape-rendering="optimizeSpeed" fill="#000" x="70.8" y="283.59999999999997" width="15.299999999999999" height="15.299999999999999"></rect><rect shape-rendering="optimizeSpeed" fill="#000" x="86" y="283.59999999999997" width="15.299999999999999" height="15.299999999999999"></rect><rect shape-rendering="optimizeSpeed" fill="#000" x="101.19999999999999" y="283.59999999999997" width="15.299999999999999" height="15.299999999999999"></rect><rect shape-rendering="optimizeSpeed" fill="#000" x="131.6" y="283.59999999999997" width="15.299999999999999" height="15.299999999999999"></rect><rect shape-rendering="optimizeSpeed" fill="#000" x="162" y="283.59999999999997" width="15.299999999999999" height="15.299999999999999"></rect><rect shape-rendering="optimizeSpeed" fill="#000" x="192.39999999999998" y="283.59999999999997" width="15.299999999999999" height="15.299999999999999"></rect><rect shape-rendering="optimizeSpeed" fill="#000" x="207.6" y="283.59999999999997" width="15.299999999999999" height="15.299999999999999"></rect><rect shape-rendering="optimizeSpeed" fill="#000" x="238" y="283.59999999999997" width="15.299999999999999" height="15.299999999999999"></rect><rect shape-rendering="optimizeSpeed" fill="#000" x="253.2" y="283.59999999999997" width="15.299999999999999" height="15.299999999999999"></rect><rect shape-rendering="optimizeSpeed" fill="#000" x="283.59999999999997" y="283.59999999999997" width="15.299999999999999" height="15.299999999999999"></rect><rect shape-rendering="optimizeSpeed" fill="#000" x="314" y="283.59999999999997" width="15.299999999999999" height="15.299999999999999"></rect><rect shape-rendering="optimizeSpeed" fill="#000" x="329.2" y="283.59999999999997" width="15.299999999999999" height="15.299999999999999"></rect><rect shape-rendering="optimizeSpeed" fill="#000" x="359.59999999999997" y="283.59999999999997" width="15.299999999999999" height="15.299999999999999"></rect><rect shape-rendering="optimizeSpeed" fill="#000" x="374.79999999999995" y="283.59999999999997" width="15.299999999999999" height="15.299999999999999"></rect><rect shape-rendering="optimizeSpeed" fill="#000" x="10" y="298.8" width="15.299999999999999" height="15.299999999999999"></rect><rect shape-rendering="optimizeSpeed" fill="#000" x="101.19999999999999" y="298.8" width="15.299999999999999" height="15.299999999999999"></rect><rect shape-rendering="optimizeSpeed" fill="#000" x="131.6" y="298.8" width="15.299999999999999" height="15.299999999999999"></rect><rect shape-rendering="optimizeSpeed" fill="#000" x="192.39999999999998" y="298.8" width="15.299999999999999" height="15.299999999999999"></rect><rect shape-rendering="optimizeSpeed" fill="#000" x="207.6" y="298.8" width="15.299999999999999" height="15.299999999999999"></rect><rect shape-rendering="optimizeSpeed" fill="#000" x="222.79999999999998" y="298.8" width="15.299999999999999" height="15.299999999999999"></rect><rect shape-rendering="optimizeSpeed" fill="#000" x="253.2" y="298.8" width="15.299999999999999" height="15.299999999999999"></rect><rect shape-rendering="optimizeSpeed" fill="#000" x="314" y="298.8" width="15.299999999999999" height="15.299999999999999"></rect><rect shape-rendering="optimizeSpeed" fill="#000" x="329.2" y="298.8" width="15.299999999999999" height="15.299999999999999"></rect><rect shape-rendering="optimizeSpeed" fill="#000" x="10" y="314" width="15.299999999999999" height="15.299999999999999"></rect><rect shape-rendering="optimizeSpeed" fill="#000" x="40.4" y="314" width="15.299999999999999" height="15.299999999999999"></rect><rect shape-rendering="optimizeSpeed" fill="#000" x="55.599999999999994" y="314" width="15.299999999999999" height="15.299999999999999"></rect><rect shape-rendering="optimizeSpeed" fill="#000" x="70.8" y="314" width="15.299999999999999" height="15.299999999999999"></rect><rect shape-rendering="optimizeSpeed" fill="#000" x="101.19999999999999" y="314" width="15.299999999999999" height="15.299999999999999"></rect><rect shape-rendering="optimizeSpeed" fill="#000" x="131.6" y="314" width="15.299999999999999" height="15.299999999999999"></rect><rect shape-rendering="optimizeSpeed" fill="#000" x="146.79999999999998" y="314" width="15.299999999999999" height="15.299999999999999"></rect><rect shape-rendering="optimizeSpeed" fill="#000" x="162" y="314" width="15.299999999999999" height="15.299999999999999"></rect><rect shape-rendering="optimizeSpeed" fill="#000" x="177.2" y="314" width="15.299999999999999" height="15.299999999999999"></rect><rect shape-rendering="optimizeSpeed" fill="#000" x="192.39999999999998" y="314" width="15.299999999999999" height="15.299999999999999"></rect><rect shape-rendering="optimizeSpeed" fill="#000" x="207.6" y="314" width="15.299999999999999" height="15.299999999999999"></rect><rect shape-rendering="optimizeSpeed" fill="#000" x="253.2" y="314" width="15.299999999999999" height="15.299999999999999"></rect><rect shape-rendering="optimizeSpeed" fill="#000" x="268.4" y="314" width="15.299999999999999" height="15.299999999999999"></rect><rect shape-rendering="optimizeSpeed" fill="#000" x="283.59999999999997" y="314" width="15.299999999999999" height="15.299999999999999"></rect><rect shape-rendering="optimizeSpeed" fill="#000" x="298.8" y="314" width="15.299999999999999" height="15.299999999999999"></rect><rect shape-rendering="optimizeSpeed" fill="#000" x="314" y="314" width="15.299999999999999" height="15.299999999999999"></rect><rect shape-rendering="optimizeSpeed" fill="#000" x="329.2" y="314" width="15.299999999999999" height="15.299999999999999"></rect><rect shape-rendering="optimizeSpeed" fill="#000" x="359.59999999999997" y="314" width="15.299999999999999" height="15.299999999999999"></rect><rect shape-rendering="optimizeSpeed" fill="#000" x="10" y="329.2" width="15.299999999999999" height="15.299999999999999"></rect><rect shape-rendering="optimizeSpeed" fill="#000" x="40.4" y="329.2" width="15.299999999999999" height="15.299999999999999"></rect><rect shape-rendering="optimizeSpeed" fill="#000" x="55.599999999999994" y="329.2" width="15.299999999999999" height="15.299999999999999"></rect><rect shape-rendering="optimizeSpeed" fill="#000" x="70.8" y="329.2" width="15.299999999999999" height="15.299999999999999"></rect><rect shape-rendering="optimizeSpeed" fill="#000" x="101.19999999999999" y="329.2" width="15.299999999999999" height="15.299999999999999"></rect><rect shape-rendering="optimizeSpeed" fill="#000" x="207.6" y="329.2" width="15.299999999999999" height="15.299999999999999"></rect><rect shape-rendering="optimizeSpeed" fill="#000" x="253.2" y="329.2" width="15.299999999999999" height="15.299999999999999"></rect><rect shape-rendering="optimizeSpeed" fill="#000" x="298.8" y="329.2" width="15.299999999999999" height="15.299999999999999"></rect><rect shape-rendering="optimizeSpeed" fill="#000" x="314" y="329.2" width="15.299999999999999" height="15.299999999999999"></rect><rect shape-rendering="optimizeSpeed" fill="#000" x="329.2" y="329.2" width="15.299999999999999" height="15.299999999999999"></rect><rect shape-rendering="optimizeSpeed" fill="#000" x="344.4" y="329.2" width="15.299999999999999" height="15.299999999999999"></rect><rect shape-rendering="optimizeSpeed" fill="#000" x="10" y="344.4" width="15.299999999999999" height="15.299999999999999"></rect><rect shape-rendering="optimizeSpeed" fill="#000" x="40.4" y="344.4" width="15.299999999999999" height="15.299999999999999"></rect><rect shape-rendering="optimizeSpeed" fill="#000" x="55.599999999999994" y="344.4" width="15.299999999999999" height="15.299999999999999"></rect><rect shape-rendering="optimizeSpeed" fill="#000" x="70.8" y="344.4" width="15.299999999999999" height="15.299999999999999"></rect><rect shape-rendering="optimizeSpeed" fill="#000" x="101.19999999999999" y="344.4" width="15.299999999999999" height="15.299999999999999"></rect><rect shape-rendering="optimizeSpeed" fill="#000" x="131.6" y="344.4" width="15.299999999999999" height="15.299999999999999"></rect><rect shape-rendering="optimizeSpeed" fill="#000" x="146.79999999999998" y="344.4" width="15.299999999999999" height="15.299999999999999"></rect><rect shape-rendering="optimizeSpeed" fill="#000" x="162" y="344.4" width="15.299999999999999" height="15.299999999999999"></rect><rect shape-rendering="optimizeSpeed" fill="#000" x="192.39999999999998" y="344.4" width="15.299999999999999" height="15.299999999999999"></rect><rect shape-rendering="optimizeSpeed" fill="#000" x="238" y="344.4" width="15.299999999999999" height="15.299999999999999"></rect><rect shape-rendering="optimizeSpeed" fill="#000" x="268.4" y="344.4" width="15.299999999999999" height="15.299999999999999"></rect><rect shape-rendering="optimizeSpeed" fill="#000" x="314" y="344.4" width="15.299999999999999" height="15.299999999999999"></rect><rect shape-rendering="optimizeSpeed" fill="#000" x="374.79999999999995" y="344.4" width="15.299999999999999" height="15.299999999999999"></rect><rect shape-rendering="optimizeSpeed" fill="#000" x="10" y="359.59999999999997" width="15.299999999999999" height="15.299999999999999"></rect><rect shape-rendering="optimizeSpeed" fill="#000" x="101.19999999999999" y="359.59999999999997" width="15.299999999999999" height="15.299999999999999"></rect><rect shape-rendering="optimizeSpeed" fill="#000" x="131.6" y="359.59999999999997" width="15.299999999999999" height="15.299999999999999"></rect><rect shape-rendering="optimizeSpeed" fill="#000" x="146.79999999999998" y="359.59999999999997" width="15.299999999999999" height="15.299999999999999"></rect><rect shape-rendering="optimizeSpeed" fill="#000" x="207.6" y="359.59999999999997" width="15.299999999999999" height="15.299999999999999"></rect><rect shape-rendering="optimizeSpeed" fill="#000" x="222.79999999999998" y="359.59999999999997" width="15.299999999999999" height="15.299999999999999"></rect><rect shape-rendering="optimizeSpeed" fill="#000" x="238" y="359.59999999999997" width="15.299999999999999" height="15.299999999999999"></rect><rect shape-rendering="optimizeSpeed" fill="#000" x="253.2" y="359.59999999999997" width="15.299999999999999" height="15.299999999999999"></rect><rect shape-rendering="optimizeSpeed" fill="#000" x="268.4" y="359.59999999999997" width="15.299999999999999" height="15.299999999999999"></rect><rect shape-rendering="optimizeSpeed" fill="#000" x="314" y="359.59999999999997" width="15.299999999999999" height="15.299999999999999"></rect><rect shape-rendering="optimizeSpeed" fill="#000" x="329.2" y="359.59999999999997" width="15.299999999999999" height="15.299999999999999"></rect><rect shape-rendering="optimizeSpeed" fill="#000" x="359.59999999999997" y="359.59999999999997" width="15.299999999999999" height="15.299999999999999"></rect><rect shape-rendering="optimizeSpeed" fill="#000" x="10" y="374.79999999999995" width="15.299999999999999" height="15.299999999999999"></rect><rect shape-rendering="optimizeSpeed" fill="#000" x="25.2" y="374.79999999999995" width="15.299999999999999" height="15.299999999999999"></rect><rect shape-rendering="optimizeSpeed" fill="#000" x="40.4" y="374.79999999999995" width="15.299999999999999" height="15.299999999999999"></rect><rect shape-rendering="optimizeSpeed" fill="#000" x="55.599999999999994" y="374.79999999999995" width="15.299999999999999" height="15.299999999999999"></rect><rect shape-rendering="optimizeSpeed" fill="#000" x="70.8" y="374.79999999999995" width="15.299999999999999" height="15.299999999999999"></rect><rect shape-rendering="optimizeSpeed" fill="#000" x="86" y="374.79999999999995" width="15.299999999999999" height="15.299999999999999"></rect><rect shape-rendering="optimizeSpeed" fill="#000" x="101.19999999999999" y="374.79999999999995" width="15.299999999999999" height="15.299999999999999"></rect><rect shape-rendering="optimizeSpeed" fill="#000" x="131.6" y="374.79999999999995" width="15.299999999999999" height="15.299999999999999"></rect><rect shape-rendering="optimizeSpeed" fill="#000" x="192.39999999999998" y="374.79999999999995" width="15.299999999999999" height="15.299999999999999"></rect><rect shape-rendering="optimizeSpeed" fill="#000" x="207.6" y="374.79999999999995" width="15.299999999999999" height="15.299999999999999"></rect><rect shape-rendering="optimizeSpeed" fill="#000" x="238" y="374.79999999999995" width="15.299999999999999" height="15.299999999999999"></rect><rect shape-rendering="optimizeSpeed" fill="#000" x="253.2" y="374.79999999999995" width="15.299999999999999" height="15.299999999999999"></rect><rect shape-rendering="optimizeSpeed" fill="#000" x="298.8" y="374.79999999999995" width="15.299999999999999" height="15.299999999999999"></rect><rect shape-rendering="optimizeSpeed" fill="#000" x="359.59999999999997" y="374.79999999999995" width="15.299999999999999" height="15.299999999999999"></rect><rect shape-rendering="optimizeSpeed" fill="#000" x="374.79999999999995" y="374.79999999999995" width="15.299999999999999" height="15.299999999999999"></rect></svg></g></svg>