<svg width="744" height="141" viewBox="0 0 744 141" fill="none" xmlns="http://www.w3.org/2000/svg">
<path d="M711.305 48.2606C711.305 44.0774 712.52 40.434 714.949 37.3303C717.513 34.0917 720.751 32.4724 724.665 32.4724C728.848 32.4724 732.491 33.7544 735.595 36.3183C738.834 38.7472 740.453 41.9184 740.453 45.8317C740.453 50.0149 739.171 53.7258 736.607 56.9644C734.178 60.068 731.007 61.6199 727.094 61.6199C722.91 61.6199 719.2 60.4054 715.961 57.9764C712.857 55.4125 711.305 52.1739 711.305 48.2606ZM725.677 83.0756C727.296 83.0756 728.443 83.0756 729.118 83.0756C730.467 83.0756 731.614 83.278 732.559 83.6829C733.638 84.0877 735.325 85.1672 737.619 86.9215C740.048 88.6757 741.667 90.7673 742.477 93.1963C743.422 95.4903 743.894 98.1891 743.894 101.293C743.894 102.372 743.826 103.519 743.692 104.734C743.557 105.813 743.489 106.623 743.489 107.163C740.925 113.91 738.699 118.903 736.809 122.141C733.841 126.999 730.13 131.115 725.677 134.488C725.137 134.758 724.395 134.893 723.45 134.893C720.616 134.893 718.188 133.409 716.163 130.44C715.894 128.281 716.636 125.447 718.39 121.939C720.279 118.565 721.224 115.934 721.224 114.045C721.224 112.965 721.156 112.156 721.021 111.616C719.132 109.187 717.58 106.758 716.366 104.329C714.746 101.225 713.937 98.3915 713.937 95.8276C713.937 94.4782 714.207 92.9938 714.746 91.3745C715.286 89.6203 716.636 88.001 718.795 86.5166C720.954 84.8973 723.248 83.7503 725.677 83.0756Z" fill="white"/>
<path d="M637.651 128.518C633.941 132.105 629.922 134.949 625.593 137.052C621.265 139.154 616.441 140.205 611.123 140.205C606.053 140.205 601.6 139.216 597.767 137.237C594.056 135.258 590.903 132.661 588.306 129.446C585.832 126.23 583.977 122.52 582.74 118.315C581.503 113.986 580.885 109.472 580.885 104.773C580.885 98.589 581.751 92.6527 583.482 86.9637C585.337 81.2747 587.996 76.2659 591.459 71.9373C595.046 67.6087 599.374 64.1459 604.445 61.5487C609.639 58.9516 615.576 57.653 622.254 57.653C625.098 57.653 627.696 58.024 630.045 58.766C632.519 59.5081 635.054 60.3738 637.651 61.3632C637.651 55.1795 637.59 49.0577 637.466 42.9976C637.466 36.8139 637.466 30.6303 637.466 24.4466C637.466 22.0968 636.786 20.489 635.425 19.6233C634.188 18.6339 632.766 17.9537 631.158 17.5827C629.674 17.2117 628.252 16.9025 626.892 16.6551C625.655 16.2841 625.037 15.4184 625.037 14.058C625.037 13.0686 625.469 12.3884 626.335 12.0174C627.325 11.6463 628.19 11.3372 628.932 11.0898C633.261 9.97674 637.59 8.74001 641.918 7.3796C646.247 5.89551 650.452 4.10224 654.533 1.99978C655.151 1.75244 655.646 1.50509 656.017 1.25774C656.512 1.01039 657.068 0.886719 657.687 0.886719C658.676 0.886719 659.294 1.31958 659.542 2.1853C659.913 2.92734 660.098 3.73122 660.098 4.59693C660.098 8.92551 659.913 13.2541 659.542 17.5827C659.171 21.9113 658.985 26.2398 658.985 30.5684L659.171 119.985C659.171 122.458 659.789 124.189 661.026 125.179C662.386 126.168 663.808 126.848 665.292 127.219C666.9 127.59 668.322 127.962 669.559 128.333C670.92 128.704 671.6 129.569 671.6 130.93C671.6 132.29 670.92 133.156 669.559 133.527C668.322 133.898 667.209 134.207 666.22 134.454C664.612 134.702 662.572 135.196 660.098 135.938C657.748 136.557 655.275 137.175 652.678 137.794C650.204 138.412 647.854 138.968 645.628 139.463C643.402 139.958 641.671 140.205 640.434 140.205C639.445 140.205 638.703 139.711 638.208 138.721C637.837 137.732 637.59 136.619 637.466 135.382C637.466 134.022 637.466 132.723 637.466 131.486C637.59 130.126 637.651 129.136 637.651 128.518ZM637.651 81.9549C637.651 79.6051 637.033 77.4408 635.796 75.462C634.56 73.3596 633.014 71.5663 631.158 70.0822C629.303 68.5981 627.201 67.4851 624.851 66.743C622.625 65.8773 620.399 65.4444 618.173 65.4444C614.834 65.4444 611.865 66.2483 609.268 67.8561C606.795 69.4638 604.692 71.5044 602.961 73.9779C601.353 76.4514 600.116 79.2341 599.251 82.3259C598.509 85.4177 598.138 88.4478 598.138 91.4159C598.138 95.0025 598.57 98.8982 599.436 103.103C600.426 107.184 601.91 111.018 603.888 114.605C605.867 118.191 608.403 121.159 611.494 123.509C614.586 125.859 618.296 127.034 622.625 127.034C626.583 127.034 630.045 126.045 633.014 124.066C636.105 121.963 637.651 118.748 637.651 114.419V81.9549Z" fill="white"/>
<path d="M517.875 98.0943C517.875 101.681 518.556 105.267 519.916 108.854C521.276 112.44 523.131 115.718 525.481 118.686C527.955 121.53 530.799 123.88 534.015 125.735C537.354 127.59 540.879 128.518 544.589 128.518C547.928 128.518 550.958 128.023 553.679 127.034C556.523 125.921 558.997 124.746 561.099 123.509C563.202 122.149 564.933 120.912 566.294 119.799C567.654 118.686 568.705 118.129 569.447 118.129C570.066 118.129 570.684 118.439 571.302 119.057C571.921 119.552 572.23 120.108 572.23 120.727C572.23 121.592 571.921 122.52 571.302 123.509C570.684 124.375 569.942 125.241 569.076 126.106C568.334 126.972 567.469 127.776 566.479 128.518C565.613 129.136 564.871 129.693 564.253 130.188C559.801 133.403 555.163 135.877 550.34 137.608C545.516 139.339 540.322 140.205 534.757 140.205C529.068 140.205 523.873 139.278 519.174 137.423C514.598 135.444 510.64 132.785 507.301 129.446C503.962 125.983 501.365 121.901 499.51 117.202C497.655 112.379 496.727 107.184 496.727 101.619C496.727 96.1773 497.655 90.8594 499.51 85.6651C501.365 80.3471 503.962 75.6475 507.301 71.5663C510.64 67.3613 514.66 64.0222 519.359 61.5487C524.183 58.9515 529.562 57.653 535.499 57.653C539.58 57.653 543.785 58.4568 548.114 60.0646C552.442 61.6724 556.4 63.8985 559.986 66.743C563.573 69.4638 566.479 72.7412 568.705 76.575C571.055 80.4089 572.23 84.552 572.23 89.0043C572.23 89.9937 571.921 90.7975 571.302 91.4159C570.808 92.0343 570.128 92.529 569.262 92.9C568.52 93.1473 567.654 93.3328 566.665 93.4565C565.799 93.5802 564.995 93.642 564.253 93.642H521.586C520.225 93.642 519.236 94.0749 518.617 94.9406C518.123 95.8063 517.875 96.8575 517.875 98.0943ZM546.258 86.5926C547.866 86.5926 549.041 86.3453 549.783 85.8506C550.649 85.3559 551.082 84.2428 551.082 82.5114C551.082 80.2853 550.649 78.121 549.783 76.0185C548.917 73.9161 547.681 72.1228 546.073 70.6387C544.589 69.0309 542.796 67.7942 540.693 66.9285C538.714 65.9391 536.55 65.4444 534.2 65.4444C531.727 65.4444 529.439 65.9391 527.336 66.9285C525.358 67.9179 523.626 69.2165 522.142 70.8242C520.782 72.432 519.669 74.3489 518.803 76.575C518.061 78.6775 517.69 80.9036 517.69 83.2534C517.69 84.6138 517.937 85.5414 518.432 86.0361C519.05 86.4071 519.978 86.5926 521.215 86.5926H546.258Z" fill="white"/>
<path d="M451.676 27.7858C451.676 23.9519 450.995 21.4166 449.635 20.1798C448.398 18.9431 446.976 18.1392 445.368 17.7682C443.76 17.3972 442.276 17.1498 440.916 17.0261C439.679 16.7788 439.061 15.7894 439.061 14.058C439.061 12.9449 439.494 12.2647 440.359 12.0174C441.225 11.6463 442.091 11.3372 442.957 11.0898C447.285 10.1004 451.676 8.92551 456.128 7.5651C460.704 6.08102 464.847 4.22591 468.557 1.99978C469.052 1.75244 469.485 1.50509 469.856 1.25774C470.227 1.01039 470.721 0.886719 471.34 0.886719C472.453 0.886719 473.133 1.1959 473.38 1.81427C473.751 2.43264 473.937 3.23652 473.937 4.22591C473.937 8.67817 473.751 13.1304 473.38 17.5827C473.133 22.0349 473.009 26.4872 473.009 30.9394L473.195 121.283C473.195 124.499 473.875 126.787 475.235 128.147C476.596 129.384 478.08 130.311 479.688 130.93C481.419 131.548 482.965 132.105 484.325 132.599C485.81 132.97 486.552 133.898 486.552 135.382C486.552 137.732 485.191 138.907 482.47 138.907C479.626 138.907 476.781 138.721 473.937 138.35C471.216 137.979 468.433 137.794 465.589 137.794C461.879 137.794 458.168 137.979 454.458 138.35C450.872 138.721 447.223 138.907 443.513 138.907C442.524 138.907 441.534 138.659 440.545 138.165C439.556 137.67 439.061 136.866 439.061 135.753C439.061 134.764 439.494 134.022 440.359 133.527C441.225 133.032 442.215 132.537 443.328 132.043C444.564 131.548 445.739 131.053 446.852 130.559C448.089 130.064 449.078 129.322 449.82 128.333C450.81 126.972 451.366 125.241 451.49 123.138C451.614 120.912 451.676 118.995 451.676 117.387V27.7858Z" fill="white"/>
<path d="M384.412 71.1952C383.794 70.3295 382.742 70.0203 381.258 70.2677C379.898 70.3914 378.723 70.4532 377.734 70.4532C376.744 70.4532 375.817 70.2677 374.951 69.8967C374.209 69.5257 373.838 68.7218 373.838 67.485C373.838 66.9903 373.9 66.4956 374.023 66.0009C374.147 65.3826 374.394 64.9497 374.765 64.7024C379.465 60.8685 383.67 57.2201 387.38 53.7572C391.09 50.2944 394.739 46.1513 398.325 41.328C398.82 40.7097 399.5 39.8439 400.366 38.7309C401.355 37.6178 402.345 37.0613 403.334 37.0613C404.324 37.0613 404.942 37.6178 405.189 38.7309C405.56 39.7203 405.746 40.586 405.746 41.328V55.7979C405.746 57.5293 405.993 58.7042 406.488 59.3226C407.106 59.9409 408.281 60.2501 410.013 60.2501H417.062C419.783 60.2501 421.638 60.1264 422.627 59.8791C423.74 59.6317 424.544 59.3226 425.039 58.9515C425.534 58.5805 425.905 58.2095 426.152 57.8385C426.523 57.3438 427.327 56.9728 428.564 56.7254L429.677 57.0964L430.419 58.395C430.419 59.5081 429.986 61.054 429.12 63.0328C428.254 64.8879 427.512 66.3101 426.894 67.2995C426.152 68.7836 425.039 69.7112 423.555 70.0822C422.071 70.4532 420.587 70.6387 419.103 70.6387C417.618 70.6387 416.073 70.5769 414.465 70.4532C412.981 70.2059 411.497 70.0822 410.013 70.0822C409.394 70.0822 408.714 70.144 407.972 70.2677C407.354 70.2677 406.735 70.4532 406.117 70.8242C406.117 71.0716 406.055 71.3808 405.931 71.7518C405.808 72.1228 405.746 72.432 405.746 72.6793V115.161C405.746 116.893 405.808 118.562 405.931 120.17C406.179 121.778 406.611 123.2 407.23 124.437C407.972 125.674 408.961 126.663 410.198 127.405C411.435 128.147 413.104 128.518 415.207 128.518C417.928 128.518 420.463 127.962 422.813 126.848C425.163 125.612 427.141 124.993 428.749 124.993C429.738 124.993 430.481 125.179 430.975 125.55C431.594 125.921 431.903 126.663 431.903 127.776C431.903 129.631 430.728 131.301 428.378 132.785C426.028 134.269 423.307 135.567 420.216 136.68C417.247 137.794 414.217 138.659 411.126 139.278C408.157 139.896 405.931 140.205 404.447 140.205C399.748 140.205 396.099 139.463 393.502 137.979C390.905 136.495 388.926 134.516 387.566 132.043C386.205 129.446 385.34 126.477 384.969 123.138C384.721 119.675 384.598 116.089 384.598 112.379L384.412 71.1952Z" fill="white"/>
<path d="M319.127 71.5663C319.127 70.2058 319.498 69.3401 320.24 68.9691C320.982 68.4744 321.909 68.1034 323.023 67.856C327.475 66.6193 331.803 65.3207 336.008 63.9603C340.213 62.5999 344.356 60.8685 348.437 58.766C348.932 58.5187 349.427 58.2713 349.922 58.024C350.416 57.7766 350.973 57.653 351.591 57.653C353.199 57.653 354.003 58.4568 354.003 60.0646C354.003 63.2801 353.817 66.4956 353.446 69.7111C353.199 72.9267 353.075 76.1422 353.075 79.3577V111.822C353.075 112.811 353.075 114.11 353.075 115.718C353.075 117.326 353.137 118.995 353.261 120.727C353.508 122.334 353.817 123.88 354.188 125.364C354.683 126.848 355.301 127.961 356.043 128.704C356.662 129.322 357.466 129.878 358.455 130.373C359.568 130.744 360.681 131.115 361.794 131.486C362.907 131.857 363.897 132.29 364.762 132.785C365.628 133.279 366.246 133.898 366.618 134.64V135.382C366.618 136.742 366.185 137.67 365.319 138.165C364.577 138.659 363.588 138.907 362.351 138.907C359.506 138.907 356.724 138.721 354.003 138.35C351.406 137.979 348.685 137.794 345.84 137.794C342.13 137.794 338.42 137.979 334.71 138.35C331.123 138.721 327.475 138.907 323.765 138.907C322.775 138.907 321.724 138.659 320.611 138.165C319.621 137.794 319.127 136.99 319.127 135.753C319.127 134.764 319.56 134.022 320.425 133.527C321.291 132.908 322.28 132.414 323.394 132.043C324.63 131.548 325.805 131.053 326.918 130.559C328.155 130.064 329.144 129.26 329.886 128.147C330.381 127.405 330.752 126.354 330.999 124.993C331.247 123.509 331.432 121.963 331.556 120.356C331.68 118.624 331.742 117.016 331.742 115.532C331.742 114.048 331.742 112.811 331.742 111.822C331.742 106.628 331.742 101.557 331.742 96.6102C331.865 91.5396 331.803 86.4071 331.556 81.2128C331.432 78.863 330.69 77.2552 329.33 76.3895C328.093 75.4001 326.671 74.7199 325.063 74.3489C323.579 73.9779 322.219 73.6687 320.982 73.4214C319.745 73.174 319.127 72.5556 319.127 71.5663Z" fill="white"/>
<path d="M264.663 71.1952C264.045 70.3295 262.994 70.0203 261.51 70.2677C260.149 70.3914 258.974 70.4532 257.985 70.4532C256.996 70.4532 256.068 70.2677 255.202 69.8967C254.46 69.5257 254.089 68.7218 254.089 67.485C254.089 66.9903 254.151 66.4956 254.275 66.0009C254.399 65.3826 254.646 64.9497 255.017 64.7024C259.717 60.8685 263.921 57.2201 267.632 53.7572C271.342 50.2944 274.99 46.1513 278.577 41.328C279.071 40.7097 279.752 39.8439 280.617 38.7309C281.607 37.6178 282.596 37.0613 283.586 37.0613C284.575 37.0613 285.193 37.6178 285.441 38.7309C285.812 39.7203 285.997 40.586 285.997 41.328V55.7979C285.997 57.5293 286.245 58.7042 286.739 59.3226C287.358 59.9409 288.533 60.2501 290.264 60.2501H297.313C300.034 60.2501 301.889 60.1264 302.879 59.8791C303.992 59.6317 304.796 59.3226 305.29 58.9515C305.785 58.5805 306.156 58.2095 306.403 57.8385C306.774 57.3438 307.578 56.9728 308.815 56.7254L309.928 57.0964L310.67 58.395C310.67 59.5081 310.237 61.054 309.372 63.0328C308.506 64.8879 307.764 66.3101 307.145 67.2995C306.403 68.7836 305.29 69.7112 303.806 70.0822C302.322 70.4532 300.838 70.6387 299.354 70.6387C297.87 70.6387 296.324 70.5769 294.716 70.4532C293.232 70.2059 291.748 70.0822 290.264 70.0822C289.646 70.0822 288.965 70.144 288.223 70.2677C287.605 70.2677 286.987 70.4532 286.368 70.8242C286.368 71.0716 286.306 71.3808 286.183 71.7518C286.059 72.1228 285.997 72.432 285.997 72.6793V115.161C285.997 116.893 286.059 118.562 286.183 120.17C286.43 121.778 286.863 123.2 287.481 124.437C288.223 125.674 289.213 126.663 290.449 127.405C291.686 128.147 293.356 128.518 295.458 128.518C298.179 128.518 300.714 127.962 303.064 126.848C305.414 125.612 307.393 124.993 309.001 124.993C309.99 124.993 310.732 125.179 311.227 125.55C311.845 125.921 312.154 126.663 312.154 127.776C312.154 129.631 310.979 131.301 308.63 132.785C306.28 134.269 303.559 135.567 300.467 136.68C297.499 137.794 294.469 138.659 291.377 139.278C288.409 139.896 286.183 140.205 284.699 140.205C279.999 140.205 276.351 139.463 273.754 137.979C271.156 136.495 269.178 134.516 267.817 132.043C266.457 129.446 265.591 126.477 265.22 123.138C264.973 119.675 264.849 116.089 264.849 112.379L264.663 71.1952Z" fill="white"/>
<path d="M202.319 57.653C208.008 57.653 212.646 58.7042 216.232 60.8066C219.942 62.9091 222.849 65.6917 224.951 69.1546C227.054 72.4938 228.538 76.3895 229.403 80.8418C230.269 85.294 230.826 89.9318 231.073 94.7551C231.32 99.4547 231.32 104.092 231.073 108.668C230.949 113.244 230.887 117.449 230.887 121.283C230.887 124.622 231.568 126.972 232.928 128.333C234.412 129.569 236.02 130.497 237.751 131.115C239.483 131.734 241.029 132.29 242.389 132.785C243.873 133.279 244.615 134.269 244.615 135.753C244.615 136.866 244.182 137.67 243.317 138.165C242.575 138.659 241.709 138.907 240.72 138.907C237.999 138.907 235.278 138.721 232.557 138.35C229.96 137.979 227.301 137.794 224.58 137.794C221.117 137.794 217.654 137.979 214.192 138.35C210.852 138.721 207.451 138.907 203.988 138.907C202.999 138.907 202.01 138.721 201.02 138.35C200.155 137.979 199.722 137.175 199.722 135.938C199.722 134.702 200.155 133.898 201.02 133.527C201.886 133.032 202.875 132.476 203.988 131.857C205.101 131.239 206.153 130.311 207.142 129.075C208.255 127.838 208.997 125.921 209.368 123.324C209.616 121.469 209.739 119.614 209.739 117.758C209.739 115.903 209.739 114.048 209.739 112.193V99.5784C209.739 96.6102 209.492 93.4565 208.997 90.1173C208.503 86.6544 207.575 83.5008 206.215 80.6563C204.854 77.8118 202.999 75.462 200.649 73.6069C198.299 71.7518 195.208 70.8242 191.374 70.8242C189.519 70.8242 187.602 71.1334 185.623 71.7518C183.768 72.3701 182.036 73.2977 180.429 74.5344C178.944 75.6475 177.708 77.0697 176.718 78.8012C175.853 80.4089 175.42 82.264 175.42 84.3665L175.605 120.17C175.605 122.396 175.976 124.128 176.718 125.364C177.584 126.601 178.635 127.59 179.872 128.333C181.109 129.075 182.469 129.693 183.953 130.188C185.561 130.682 187.107 131.363 188.591 132.228C188.962 132.97 189.148 133.836 189.148 134.825C189.148 137.546 187.725 138.907 184.881 138.907C182.16 138.907 179.439 138.721 176.718 138.35C173.998 137.979 171.277 137.794 168.556 137.794C164.846 137.794 161.135 137.979 157.425 138.35C153.715 138.721 150.005 138.907 146.295 138.907C145.305 138.907 144.254 138.721 143.141 138.35C142.152 137.979 141.657 137.175 141.657 135.938C141.657 134.454 142.337 133.527 143.697 133.156C145.058 132.661 146.48 132.043 147.964 131.301C149.572 130.559 151.056 129.384 152.416 127.776C153.777 126.045 154.457 123.2 154.457 119.242C154.457 113.801 154.395 108.483 154.272 103.289C154.272 97.9706 154.272 92.6526 154.272 87.3347C154.272 86.2216 154.21 84.7993 154.086 83.0679C154.086 81.3365 153.962 79.9761 153.715 78.9867C153.22 77.3789 152.293 76.3277 150.932 75.833C149.696 75.2146 148.335 74.7818 146.851 74.5344C145.491 74.1634 144.254 73.7924 143.141 73.4214C142.152 73.0503 141.657 72.1846 141.657 70.8242C141.657 69.8348 142.028 69.1546 142.77 68.7836C143.636 68.4126 144.501 68.1034 145.367 67.856C150.067 66.743 154.519 65.4444 158.724 63.9603C162.929 62.4762 167.195 60.683 171.524 58.5805C172.513 58.0858 173.255 57.7766 173.75 57.653L174.863 58.024L175.234 58.766C175.482 60.6211 175.543 62.4762 175.42 64.3313C175.42 66.1864 175.42 68.0416 175.42 69.8967C179.377 66.5575 183.459 63.713 187.663 61.3632C191.992 58.8897 196.877 57.653 202.319 57.653Z" fill="white"/>
<path d="M0 9.70429C0 8.33933 0.414622 7.53276 1.24386 7.28458C2.07311 6.91233 2.90235 6.7262 3.73159 6.7262C7.04856 6.7262 10.3137 6.91233 13.527 7.28458C16.844 7.65685 20.161 7.84298 23.4779 7.84298C27.1059 7.84298 30.682 7.65685 34.2063 7.28458C37.7305 6.91233 41.3066 6.7262 44.9346 6.7262C45.8675 6.7262 46.6967 6.91233 47.4223 7.28458C48.1479 7.65685 48.5107 8.52546 48.5107 9.89042C48.5107 11.0072 48.1479 11.8138 47.4223 12.3101C46.6967 12.8065 45.8157 13.3028 44.7791 13.7992C43.7426 14.1714 42.6542 14.7919 41.514 15.6605C40.3738 16.405 39.4409 17.7079 38.7153 19.5692C38.4043 20.4379 38.1452 21.5546 37.9379 22.9196C37.7305 24.1605 37.5751 25.5254 37.4714 27.0145C37.3678 28.5035 37.2641 29.9305 37.1604 31.2955C37.1604 32.6605 37.1604 33.8393 37.1604 34.832V75.5947C37.1604 78.821 37.2123 82.1093 37.3159 85.4597C37.4196 88.81 37.6787 92.0983 38.0933 95.3246C38.7153 100.784 40.011 105.562 41.9804 109.657C44.0535 113.628 46.5931 117.04 49.5991 119.894C52.6051 122.624 56.0257 124.671 59.861 126.036C63.7999 127.401 67.9461 128.084 72.2996 128.084C79.7628 128.084 85.8784 126.471 90.6466 123.244C95.4147 119.894 99.1982 115.489 101.997 110.029C104.796 104.569 106.713 98.3027 107.75 91.2297C108.786 84.1567 109.305 76.8356 109.305 69.2663V44.3247C109.305 42.8356 109.253 40.9123 109.149 38.5546C109.149 36.0729 109.045 33.5911 108.838 31.1094C108.631 28.5035 108.32 26.0838 107.905 23.8503C107.491 21.6167 106.869 19.9415 106.039 18.8247C105.107 17.4598 103.759 16.4671 101.997 15.8466C100.338 15.1021 98.6799 14.4817 97.0214 13.9853C95.3629 13.489 93.9117 12.9926 92.6679 12.4963C91.424 11.8758 90.8021 10.9452 90.8021 9.70429C90.8021 8.46342 91.113 7.65685 91.735 7.28458C92.3569 6.91233 93.0825 6.7262 93.9117 6.7262C96.6068 6.7262 99.25 6.91233 101.841 7.28458C104.536 7.65685 107.231 7.84298 109.926 7.84298C112.622 7.84298 115.213 7.65685 117.701 7.28458C120.292 6.91233 122.935 6.7262 125.63 6.7262C126.563 6.7262 127.341 6.91233 127.963 7.28458C128.688 7.65685 129.051 8.52546 129.051 9.89042C129.051 11.2554 128.636 12.124 127.807 12.4963C126.978 12.8685 125.993 13.3028 124.853 13.7992C123.713 14.1714 122.521 14.916 121.277 16.0328C120.137 17.0254 119.255 18.8247 118.634 21.4306C118.115 23.6641 117.752 26.7663 117.545 30.7371C117.442 34.5838 117.39 38.6787 117.39 43.0218C117.39 47.2407 117.442 51.3977 117.545 55.4925C117.649 59.4633 117.701 62.8137 117.701 65.5436C117.701 76.5874 116.871 86.7005 115.213 95.883C113.554 104.941 110.704 112.759 106.661 119.336C102.619 125.788 97.1769 130.814 90.3356 134.412C83.598 138.011 75.0983 139.81 64.8364 139.81C58.6171 139.81 52.3459 139.003 46.023 137.39C39.7 135.653 34.0508 132.241 29.0753 127.153C25.9657 123.927 23.5298 120.266 21.7676 116.171C20.1091 112.076 18.8653 107.733 18.036 103.142C17.3104 98.5509 16.8958 93.8976 16.7922 89.1823C16.6885 84.467 16.6367 79.8137 16.6367 75.2225C16.6367 67.0327 16.5849 58.8429 16.4812 50.6531C16.4812 42.3393 16.4812 34.0875 16.4812 25.8977C16.4812 22.051 15.6001 19.3831 13.838 17.8941C12.1795 16.2809 10.3137 15.1641 8.2406 14.5437C6.16749 13.9233 4.24987 13.4269 2.48773 13.0546C0.829243 12.5583 0 11.4415 0 9.70429Z" fill="white"/>
<path d="M330.384 25.5527C329.278 27.2731 328.725 28.5635 328.725 29.4238C328.725 30.284 329.216 31.5129 330.199 33.1105C331.305 34.7081 332.534 36.3672 333.885 38.0877C335.359 39.6853 336.772 41.0985 338.124 42.3274C339.598 43.5564 340.765 44.1708 341.625 44.1708C342.362 44.1708 343.53 43.5564 345.127 42.3274C346.724 40.9756 348.26 39.4395 349.734 37.719C351.331 35.9985 352.683 34.3395 353.788 32.7419C355.017 31.0214 355.631 29.7924 355.631 29.0551C355.631 28.3177 355.078 27.1503 353.973 25.5527C352.867 23.8322 351.577 22.1117 350.103 20.3912C348.628 18.6707 347.154 17.1345 345.68 15.7827C344.205 14.4309 343.1 13.755 342.362 13.755C341.502 13.755 340.274 14.4309 338.677 15.7827C337.202 17.1345 335.728 18.6707 334.254 20.3912C332.779 22.1117 331.489 23.8322 330.384 25.5527Z" fill="#FF5C00"/>
</svg>
