<?xml version="1.0" encoding="utf-8"?>
<!-- Generator: Adobe Illustrator 27.0.0, SVG Export Plug-In . SVG Version: 6.00 Build 0)  -->
<svg version="1.1" id="레이어_1" xmlns="http://www.w3.org/2000/svg" xmlns:xlink="http://www.w3.org/1999/xlink" x="0px"
	 y="0px" viewBox="0 0 85 85" style="enable-background:new 0 0 85 85;" xml:space="preserve">
<g>
	<path d="M26.8,49.5c0,3.1-2.7,6.4-9.2,6.4c-3.3,0-5.3-1-6.7-2.4c-1-0.7-1.8,0.4-1.8,1.8v0.7H8.6v-8.3h0.4c0,1.1,0.3,7.8,8.6,7.8
		c6.5,0,6.1-4,6.1-5c-0.1-1.6-1.1-4.1-6.1-6.2c-5.2-2.2-8.1-4.8-8.1-8.2c0-2.9,1.4-6.8,8.1-6.8c2.3,0,4.7,1.3,6.2,3.3l0,0
		c0,0.1,0.1,0.1,0.1,0.1c0.5,0.6,1,0.7,1-0.4v-3h0.4v7.4h-0.4c0-3-3.2-6.9-7.4-6.9s-5.2,2.3-5.3,3.9c0,1.2-0.8,3.8,7.9,7.7
		C26.5,44.1,26.8,47.3,26.8,49.5z"/>
	<path d="M49.2,47.6l-0.9,8.3l-1,0H35.8l-3.6,0l-4.1,0l0-0.4h4.1V29.6h-4.1v-0.5l7.6,0l11.6,0l1,0l0.4,7.5l-0.5,0l-0.6-4.8
		c-0.2-1.6-0.5-2.3-2.1-2.3h-9.8v12.6h4.9c0.6,0,1.1-0.2,1.5-0.6c0.4-0.4,0.6-1,0.6-1.5v-1.5l0.4,0l0,3.4v1l0,3.3l-0.4,0v-1.7
		c0-1.6-1.6-1.9-2.1-1.9h-4.9v12.8h9.9c1.4,0,1.5-0.8,1.8-2.1l1.2-5.7L49.2,47.6z"/>
	<path d="M76.4,42.7c0,7.1-4.3,13.1-12.4,13.1c-8.1,0-12.4-6-12.4-13.1S55.8,29.2,64,29.2C72.2,29.2,76.4,35.7,76.4,42.7z
		 M72.8,42.8c0-5.9-2.3-13.2-8.9-13.2c-6.6,0-8.9,7.3-8.9,13.2s2.2,12.6,8.9,12.6C70.7,55.4,72.8,48.7,72.8,42.8z"/>
</g>
</svg>
