<?xml version="1.0" encoding="utf-8"?>
<!-- Generator: Adobe Illustrator 25.0.0, SVG Export Plug-In . SVG Version: 6.00 Build 0)  -->
<svg version="1.1" id="Layer_1" xmlns="http://www.w3.org/2000/svg" xmlns:xlink="http://www.w3.org/1999/xlink" x="0px" y="0px"
	 viewBox="0 0 300 300" style="enable-background:new 0 0 300 300;" xml:space="preserve">
<path d="M149.35,294.65c-2.95-42.75-5.9-85.5-8.9-129.07c-32.7,30.76-64.97,61.11-97.23,91.47c-0.19-0.18-0.37-0.36-0.56-0.54
	c30.35-32.26,60.7-64.51,91.51-97.25c-43.51-3-86.32-5.96-129.13-8.91c-0.01-0.22-0.02-0.44-0.03-0.66
	c42.94-2.97,85.88-5.93,129.52-8.95c-16.15-17.97-31.94-35.55-47.73-53.13c0.17-0.17,0.34-0.35,0.51-0.52
	c17.52,15.74,35.05,31.48,53.12,47.71c3.01-43.59,5.98-86.55,8.95-129.51c0.23,0,0.46-0.01,0.69-0.01
	c2.95,42.77,5.91,85.53,8.92,129.18c32.51-30.58,64.59-60.76,96.68-90.94c0.2,0.19,0.39,0.38,0.59,0.57
	c-30.13,32.02-60.26,64.03-90.93,96.63c43.66,3.02,86.68,5.99,129.7,8.96c0,0.22,0,0.44,0.01,0.66
	c-43.08,2.97-86.16,5.95-130.06,8.98c16,17.81,31.58,35.16,47.17,52.51c-0.18,0.19-0.37,0.39-0.55,0.58
	c-17.34-15.57-34.69-31.15-52.56-47.2c-3.01,43.61-5.98,86.56-8.95,129.52C149.81,294.7,149.58,294.67,149.35,294.65z"/>
</svg>
