<?xml version="1.0" encoding="utf-8"?>
<!-- Generator: Adobe Illustrator 27.0.0, SVG Export Plug-In . SVG Version: 6.00 Build 0)  -->
<svg version="1.1" id="레이어_1" xmlns="http://www.w3.org/2000/svg" xmlns:xlink="http://www.w3.org/1999/xlink" x="0px"
	 y="0px" viewBox="0 0 85 85" style="enable-background:new 0 0 85 85;" xml:space="preserve">
<g>
	<path d="M53,52.4l-1.5,7.3c-0.4,1.7-0.5,2.7-2.3,2.7h-9.2c0,0.2,0,0.3,0,0.5h11.3l1.2,0l1.1-10.5H53z"/>
	<g>
		<path d="M45.6,42.9c0,0.7-0.2,1.4-0.7,1.9c-0.5,0.5-1.2,0.8-2,0.7h-6.2v-5.6v-1v-4.8v-4.3c-0.3-0.3-0.5-0.6-0.9-0.8L27,29v0.6h5.2
			v4.6v6.1v0.4v5.6v16H27l0,0.5l5.2,0l4.4,0c0-0.4,0.1-0.8,0.1-1.2V46.4v-0.3h6.2c0.7,0,2.7,0.4,2.7,2.5v2.1l0.5,0l0-4.2v-1.2l0-4.3
			l-0.5,0V42.9z"/>
		<path d="M52.6,29.1l-1.2,0l-9.4,0c0.1,0.2,0.1,0.4,0.2,0.5h6.9c2,0,2.3,0.9,2.6,2.9l0.7,6.1l0.7,0L52.6,29.1z"/>
	</g>
	<g>
		<path d="M30.4,40.1c-7.9-1.3-8.4-8.4-8.4-9.7h-0.5v10.5H22v-0.8c0-1.7,0.9-3.1,2.3-2.2c1.4,1.5,3.3,2.5,6.1,2.9V40.1z"/>
		<path d="M36.1,22.4c-10.9-5-10-8.3-10-9.8c0-2,1.4-5,6.7-5s9.3,5,9.3,8.8h0.5V7.1h-0.5v3.8c0,1.3-0.7,1.3-1.3,0.5
			c0-0.1-0.1-0.1-0.1-0.2l0,0c-1.9-2.5-5-4.2-7.9-4.2c-8.5,0-10.4,5-10.3,8.7c0.1,4.3,3.7,7.6,10.3,10.4c6.4,2.6,7.7,5.9,7.8,7.9
			c0.1,1.3,0.6,6.4-7.7,6.4c-0.3,0-0.5-0.1-0.7-0.1v0.6c0.2,0,0.4,0,0.6,0c8.3,0,11.7-4.2,11.7-8.1C44.5,30,44.1,26,36.1,22.4z"/>
	</g>
	<path d="M63.6,64.6C63.6,71.8,59.2,78,51,78c-8.2,0-12.6-6.1-12.6-13.3c0-7.2,4.3-13.9,12.6-13.9C59.3,50.8,63.6,57.4,63.6,64.6z
		 M60,64.7c0-6-2.3-13.4-9-13.4c-6.7,0-9,7.5-9,13.4c0,6,2.2,12.8,9,12.8C57.8,77.5,60,70.7,60,64.7z"/>
</g>
</svg>
